name C:/MyDriveSym/Projects/mobilecap/Data\Session20210813_0001\mocap\ForceDataProcessed\DJAsym5_forces.mot
datacolumns 28
datarows 18
range 1.27950000 1.28800000
endheader 
time	R_ground_force_vx	R_ground_force_vy	R_ground_force_vz	R_ground_force_px	R_ground_force_py	R_ground_force_pz	R_ground_torque_x	R_ground_torque_y	R_ground_torque_z	L_ground_force_vx	L_ground_force_vy	L_ground_force_vz	L_ground_force_px	L_ground_force_py	L_ground_force_pz	L_ground_torque_x	L_ground_torque_y	L_ground_torque_z	3_ground_force_vx	3_ground_force_vy	3_ground_force_vz	3_ground_force_px	3_ground_force_py	3_ground_force_pz	3_ground_torque_x	3_ground_torque_y	3_ground_torque_z	
          1.27950000	        -64.98920400	       1018.77826600	       -116.78317000	         -0.15178800	          0.00600000	         -0.32836500	          0.00000000	         -4.00777500	          0.00000000	       -131.64582400	        471.71436100	         50.78749700	         -0.16500500	          0.00600000	         -0.84128600	          0.00000000	         11.35115000	          0.00000000	          0.00000000	          0.00000000	          0.00000000	          0.00000000	          0.00000000	          0.00000000	          0.00000000	          0.00000000	          0.00000000	
          1.28000000	        -65.88449500	       1014.37114700	       -115.13755700	         -0.15145600	          0.00600000	         -0.32839700	          0.00000000	         -4.12047400	          0.00000000	       -130.53967700	        471.65564500	         50.80013000	         -0.16492900	          0.00600000	         -0.84130200	          0.00000000	         11.32919600	          0.00000000	          0.00000000	          0.00000000	          0.00000000	          0.00000000	          0.00000000	          0.00000000	          0.00000000	          0.00000000	          0.00000000	
          1.28050000	        -66.82478200	       1009.77451900	       -113.50685300	         -0.15111300	          0.00600000	         -0.32842600	          0.00000000	         -4.23144000	          0.00000000	       -129.40622600	        471.62216500	         50.83190200	         -0.16485800	          0.00600000	         -0.84131800	          0.00000000	         11.30553800	          0.00000000	          0.00000000	          0.00000000	          0.00000000	          0.00000000	          0.00000000	          0.00000000	          0.00000000	          0.00000000	          0.00000000	
          1.28100000	        -67.80559300	       1005.00027200	       -111.89447500	         -0.15075900	          0.00600000	         -0.32845400	          0.00000000	         -4.34033600	          0.00000000	       -128.24852900	        471.61576600	         50.88320700	         -0.16479100	          0.00600000	         -0.84133400	          0.00000000	         11.28009500	          0.00000000	          0.00000000	          0.00000000	          0.00000000	          0.00000000	          0.00000000	          0.00000000	          0.00000000	          0.00000000	          0.00000000	
          1.28150000	        -68.82243600	       1000.06048500	       -110.30366000	         -0.15039500	          0.00600000	         -0.32847900	          0.00000000	         -4.44684500	          0.00000000	       -127.06963600	        471.63820200	         50.95435400	         -0.16473000	          0.00600000	         -0.84135000	          0.00000000	         11.25278400	          0.00000000	          0.00000000	          0.00000000	          0.00000000	          0.00000000	          0.00000000	          0.00000000	          0.00000000	          0.00000000	          0.00000000	
          1.28200000	        -69.87083400	        994.96737500	       -108.73744400	         -0.15002200	          0.00600000	         -0.32850300	          0.00000000	         -4.55066500	          0.00000000	       -125.87255100	        471.69113900	         51.04554900	         -0.16467300	          0.00600000	         -0.84136600	          0.00000000	         11.22352000	          0.00000000	          0.00000000	          0.00000000	          0.00000000	          0.00000000	          0.00000000	          0.00000000	          0.00000000	          0.00000000	          0.00000000	
          1.28250000	        -70.94634600	        989.73324900	       -107.19865800	         -0.14964000	          0.00600000	         -0.32852500	          0.00000000	         -4.65151200	          0.00000000	       -124.66020400	        471.77615700	         51.15687700	         -0.16462000	          0.00600000	         -0.84138200	          0.00000000	         11.19222100	          0.00000000	          0.00000000	          0.00000000	          0.00000000	          0.00000000	          0.00000000	          0.00000000	          0.00000000	          0.00000000	          0.00000000	
          1.28300000	        -72.04459400	        984.37043400	       -105.68993000	         -0.14925000	          0.00600000	         -0.32854400	          0.00000000	         -4.74911500	          0.00000000	       -123.43543800	        471.89476600	         51.28830800	         -0.16457300	          0.00600000	         -0.84139800	          0.00000000	         11.15880900	          0.00000000	          0.00000000	          0.00000000	          0.00000000	          0.00000000	          0.00000000	          0.00000000	          0.00000000	          0.00000000	          0.00000000	
          1.28350000	        -73.16127500	        978.89121000	       -104.21369800	         -0.14885300	          0.00600000	         -0.32856200	          0.00000000	         -4.84321700	          0.00000000	       -122.20100000	        472.04842300	         51.43970300	         -0.16452900	          0.00600000	         -0.84141300	          0.00000000	         11.12322300	          0.00000000	          0.00000000	          0.00000000	          0.00000000	          0.00000000	          0.00000000	          0.00000000	          0.00000000	          0.00000000	          0.00000000	
          1.28400000	        -74.29218100	        973.30775200	       -102.77221600	         -0.14844900	          0.00600000	         -0.32857700	          0.00000000	         -4.93357900	          0.00000000	       -120.95954400	        472.23851400	         51.61082700	         -0.16449000	          0.00600000	         -0.84142800	          0.00000000	         11.08541100	          0.00000000	          0.00000000	          0.00000000	          0.00000000	          0.00000000	          0.00000000	          0.00000000	          0.00000000	          0.00000000	          0.00000000	
          1.28450000	        -75.43323300	        967.63212100	       -101.36756100	         -0.14803900	          0.00600000	         -0.32859000	          0.00000000	         -5.01997900	          0.00000000	       -119.71363800	        472.46630900	         51.80136500	         -0.16445600	          0.00600000	         -0.84144300	          0.00000000	         11.04533600	          0.00000000	          0.00000000	          0.00000000	          0.00000000	          0.00000000	          0.00000000	          0.00000000	          0.00000000	          0.00000000	          0.00000000	
          1.28500000	        -76.58052600	        961.87626700	       -100.00164800	         -0.14762400	          0.00600000	         -0.32860100	          0.00000000	         -5.10221900	          0.00000000	       -118.46576100	        472.73290800	         52.01094000	         -0.16442600	          0.00600000	         -0.84145700	          0.00000000	         11.00298100	          0.00000000	          0.00000000	          0.00000000	          0.00000000	          0.00000000	          0.00000000	          0.00000000	          0.00000000	          0.00000000	          0.00000000	
          1.28550000	        -77.73034900	        956.05200100	        -98.67623600	         -0.14720500	          0.00600000	         -0.32860900	          0.00000000	         -5.18012100	          0.00000000	       -117.21828200	        473.03922300	         52.23913000	         -0.16440000	          0.00600000	         -0.84147100	          0.00000000	         10.95834400	          0.00000000	          0.00000000	          0.00000000	          0.00000000	          0.00000000	          0.00000000	          0.00000000	          0.00000000	          0.00000000	          0.00000000	
          1.28600000	        -78.87920800	        950.17094700	        -97.39294600	         -0.14678100	          0.00600000	         -0.32861500	          0.00000000	         -5.25352200	          0.00000000	       -115.97342800	        473.38596300	         52.48548700	         -0.16437800	          0.00600000	         -0.84148500	          0.00000000	         10.91144000	          0.00000000	          0.00000000	          0.00000000	          0.00000000	          0.00000000	          0.00000000	          0.00000000	          0.00000000	          0.00000000	          0.00000000	
          1.28650000	        -80.02383700	        944.24448100	        -96.15326200	         -0.14635500	          0.00600000	         -0.32861900	          0.00000000	         -5.32227100	          0.00000000	       -114.73324000	        473.77360600	         52.74953100	         -0.16436000	          0.00600000	         -0.84149900	          0.00000000	         10.86230200	          0.00000000	          0.00000000	          0.00000000	          0.00000000	          0.00000000	          0.00000000	          0.00000000	          0.00000000	          0.00000000	          0.00000000	
          1.28700000	        -81.16119900	        938.28368200	        -94.95854300	         -0.14592600	          0.00600000	         -0.32862100	          0.00000000	         -5.38622400	          0.00000000	       -113.49954900	        474.20237700	         53.03075100	         -0.16434700	          0.00600000	         -0.84151300	          0.00000000	         10.81097900	          0.00000000	          0.00000000	          0.00000000	          0.00000000	          0.00000000	          0.00000000	          0.00000000	          0.00000000	          0.00000000	          0.00000000	
          1.28750000	        -82.28849000	        932.29932900	        -93.81001500	         -0.14549500	          0.00600000	         -0.32862100	          0.00000000	         -5.44525000	          0.00000000	       -112.27395000	        474.67222200	         53.32860200	         -0.16433700	          0.00600000	         -0.84152800	          0.00000000	         10.75753000	          0.00000000	          0.00000000	          0.00000000	          0.00000000	          0.00000000	          0.00000000	          0.00000000	          0.00000000	          0.00000000	          0.00000000	
          1.28800000	        -83.40314300	        926.30191200	        -92.70878600	         -0.14506400	          0.00600000	         -0.32861800	          0.00000000	         -5.49923100	          0.00000000	       -111.05779500	        475.18279300	         53.64250300	         -0.16433000	          0.00600000	         -0.84154200	          0.00000000	         10.70203100	          0.00000000	          0.00000000	          0.00000000	          0.00000000	          0.00000000	          0.00000000	          0.00000000	          0.00000000	          0.00000000	          0.00000000	
